<?xml version="1.0" encoding="iso-8859-1"?>
<!-- Generator: Adobe Illustrator 19.0.0, SVG Export Plug-In . SVG Version: 6.00 Build 0)  -->
<svg version="1.1" id="Capa_1" xmlns="http://www.w3.org/2000/svg" xmlns:xlink="http://www.w3.org/1999/xlink" x="0px" y="0px"
	 viewBox="0 0 58.01 58.01" style="enable-background:new 0 0 58.01 58.01;" xml:space="preserve">
<g>
	<g>
		<path d="M57.875,29.746c0.008-0.131-0.006-0.255-0.046-0.375c-0.09-0.52-0.207-1.049-0.36-1.59
			c-0.078-0.277-0.188-0.542-0.285-0.763L54.772,20.6c-0.33-0.877-1.111-1.501-2.04-1.628c-0.931-0.124-1.849,0.264-2.401,1.02
			c-1.238,1.69-3.096,2.702-4.903,2.635h-3.964l-3.702-4.135l-0.164-0.146c-1.108-0.791-2.512-0.94-3.759-0.403
			c-1.419,0.615-2.938,1.59-4.697,2.718c-1.745,1.119-3.705,2.376-5.965,3.533c-0.033,0.012-0.062,0.03-0.093,0.045
			c-2.214,1.127-4.712,2.158-7.583,2.869c-0.931,0.231-1.891,0.355-2.907,0.486l-7.776,0.038c-1.937-0.191-3.733,0.946-4.482,2.819
			c-0.824,2.062-0.089,4.449,1.75,5.675l0.122,0.08C6.9,39.307,12.362,40.66,17.991,40.14c4.063-0.381,9.823-0.998,14.196-1.776
			c2.554-0.454,5.094-0.391,7.554,0.189l5.185,1.223l0.23,0.077c1.131,0.358,2.303,0.532,3.458,0.532
			c2.652,0,5.212-0.916,6.952-2.603C57.568,35.84,58.351,33.029,57.875,29.746z M54.887,32.217
			c-0.152,0.236-0.321,0.457-0.505,0.657c-0.372,0.408-0.344,1.04,0.063,1.413c0.192,0.175,0.434,0.262,0.675,0.262
			c0.112,0,0.221-0.03,0.328-0.068c-0.308,0.698-0.724,1.328-1.277,1.865c-1.953,1.895-5.415,2.553-8.407,1.603l-5.568-1.343
			c-1.532-0.36-3.092-0.541-4.664-0.541c-1.227,0-2.462,0.11-3.697,0.33c-4.307,0.767-10.008,1.376-14.032,1.753
			c-5.181,0.486-10.188-0.765-14.496-3.609l-0.114-0.076c-0.761-0.507-1.185-1.362-1.189-2.245c0.016,0.001,0.03,0.01,0.046,0.01
			c0.216,0,0.435-0.07,0.617-0.214c0.435-0.342,0.509-0.971,0.168-1.404c-0.055-0.068-0.093-0.142-0.142-0.212
			c0.501-0.548,1.22-0.85,2.027-0.771h7.683l0.445-0.05c1.028-0.133,2.091-0.27,3.133-0.528c1.092-0.271,2.114-0.594,3.104-0.939
			l3.224,3.224c0.195,0.195,0.451,0.293,0.707,0.293s0.512-0.098,0.707-0.293c0.391-0.391,0.391-1.023,0-1.414l-2.588-2.588
			c0.758-0.315,1.487-0.643,2.187-0.985l3.987,3.987c0.195,0.195,0.451,0.293,0.707,0.293s0.512-0.098,0.707-0.293
			c0.391-0.391,0.391-1.023,0-1.414l-3.535-3.535c0.791-0.432,1.553-0.869,2.272-1.305l4.821,5.225
			c0.197,0.214,0.466,0.322,0.735,0.322c0.243,0,0.485-0.088,0.678-0.265c0.406-0.375,0.432-1.008,0.058-1.413l-4.563-4.946
			c0.35-0.222,0.699-0.445,1.033-0.659c1.686-1.081,3.142-2.016,4.411-2.565c0.569-0.246,1.202-0.19,1.721,0.139l4.216,4.71
			l4.821-0.001c2.403,0.093,4.93-1.231,6.554-3.452c0.175-0.24,0.418-0.234,0.518-0.22c0.097,0.014,0.334,0.074,0.438,0.35
			l2.432,6.466c0.077,0.18,0.158,0.361,0.213,0.555c0.137,0.485,0.238,0.953,0.317,1.41c-0.002,0.011-0.004,0.022-0.007,0.033
			c-0.055,0.244-0.005,0.483,0.105,0.688c0.052,0.471,0.081,0.93,0.069,1.367C55.608,31.689,55.136,31.829,54.887,32.217z"/>
		<path d="M16.919,34.55c-0.317,0.009-0.644,0.016-0.979,0.018c-0.552,0.003-0.997,0.453-0.994,1.006c0.003,0.55,0.45,0.994,1,0.994
			c0.002,0,0.004,0,0.006,0c0.349-0.002,0.69-0.009,1.021-0.018c0.552-0.016,0.987-0.475,0.973-1.027S17.452,34.541,16.919,34.55z"
			/>
		<path d="M20.807,34.212c-0.327,0.04-0.654,0.079-0.981,0.115c-0.549,0.062-0.944,0.557-0.883,1.105
			c0.058,0.511,0.49,0.889,0.993,0.889c0.037,0,0.074-0.002,0.112-0.006c0.335-0.038,0.67-0.077,1.005-0.119
			c0.548-0.067,0.938-0.567,0.869-1.115C21.855,34.533,21.356,34.133,20.807,34.212z"/>
		<path d="M5.634,32.728c-0.278-0.134-0.547-0.276-0.804-0.43c-0.475-0.282-1.088-0.127-1.371,0.348
			c-0.282,0.475-0.127,1.089,0.348,1.371c0.308,0.183,0.629,0.354,0.96,0.514c0.14,0.067,0.287,0.099,0.433,0.099
			c0.373,0,0.73-0.209,0.902-0.566C6.341,33.565,6.131,32.968,5.634,32.728z"/>
		<path d="M24.742,33.664l-0.983,0.145c-0.547,0.079-0.926,0.586-0.846,1.133c0.072,0.498,0.499,0.856,0.988,0.856
			c0.048,0,0.096-0.003,0.145-0.011l0.995-0.146c0.546-0.082,0.922-0.592,0.839-1.138C25.797,33.957,25.288,33.581,24.742,33.664z"
			/>
		<path d="M13.024,34.462c-0.32-0.024-0.643-0.054-0.966-0.089c-0.546-0.06-1.042,0.337-1.102,0.887
			c-0.06,0.549,0.337,1.042,0.887,1.102c0.343,0.037,0.687,0.068,1.026,0.095c0.026,0.002,0.053,0.003,0.078,0.003
			c0.518,0,0.956-0.398,0.996-0.923C13.986,34.985,13.574,34.504,13.024,34.462z"/>
		<path d="M9.205,33.914c-0.313-0.069-0.623-0.145-0.929-0.227c-0.532-0.144-1.081,0.173-1.225,0.707
			c-0.144,0.533,0.173,1.081,0.707,1.225c0.335,0.09,0.674,0.173,1.017,0.248c0.072,0.016,0.145,0.023,0.216,0.023
			c0.459,0,0.873-0.318,0.976-0.785C10.086,34.566,9.745,34.033,9.205,33.914z"/>
		<path d="M40.983,33.277c-0.338-0.068-0.669-0.135-0.996-0.195c-0.541-0.101-1.065,0.255-1.167,0.798
			c-0.103,0.543,0.255,1.065,0.798,1.167c0.317,0.061,0.641,0.125,0.969,0.191c0.066,0.014,0.134,0.02,0.199,0.02
			c0.466,0,0.883-0.327,0.979-0.802C41.875,33.915,41.524,33.387,40.983,33.277z"/>
		<path d="M48.713,34.578c-0.312-0.014-0.627-0.038-0.944-0.069c-0.571-0.055-1.04,0.349-1.094,0.896
			c-0.055,0.55,0.347,1.039,0.896,1.094c0.354,0.035,0.705,0.062,1.052,0.077c0.016,0.001,0.03,0.001,0.046,0.001
			c0.531,0,0.975-0.419,0.998-0.955C49.692,35.07,49.265,34.602,48.713,34.578z"/>
		<path d="M28.73,33.108c-0.335,0.041-0.669,0.086-1.003,0.131c-0.547,0.075-0.931,0.579-0.856,1.126
			c0.068,0.502,0.497,0.865,0.99,0.865c0.045,0,0.09-0.003,0.136-0.009c0.326-0.045,0.652-0.088,0.979-0.129
			c0.548-0.067,0.938-0.567,0.869-1.115S29.282,33.028,28.73,33.108z"/>
		<path d="M44.889,34.08c-0.323-0.062-0.647-0.125-0.971-0.189c-0.548-0.114-1.069,0.243-1.177,0.784
			c-0.108,0.542,0.243,1.068,0.784,1.177c0.331,0.066,0.663,0.132,0.994,0.193c0.063,0.012,0.124,0.018,0.186,0.018
			c0.472,0,0.892-0.335,0.981-0.815C45.79,34.704,45.432,34.182,44.889,34.08z"/>
		<path d="M52.301,34.196c-0.271,0.092-0.552,0.165-0.842,0.223c-0.541,0.108-0.893,0.635-0.784,1.177
			c0.095,0.476,0.513,0.804,0.979,0.804c0.064,0,0.131-0.006,0.197-0.02c0.381-0.076,0.746-0.173,1.088-0.287
			c0.523-0.177,0.805-0.744,0.629-1.268C53.393,34.303,52.832,34.023,52.301,34.196z"/>
		<path d="M32.766,32.709c-0.338,0.023-0.675,0.048-1.012,0.075c-0.551,0.046-0.96,0.528-0.915,1.079
			c0.044,0.522,0.48,0.918,0.996,0.918c0.027,0,0.055-0.001,0.083-0.003c0.327-0.027,0.654-0.052,0.982-0.073
			c0.551-0.037,0.968-0.515,0.931-1.065S33.343,32.684,32.766,32.709z"/>
		<path d="M36.895,32.658l-0.304-0.014c-0.249-0.009-0.498-0.015-0.748-0.018c-0.527-0.048-1.005,0.435-1.012,0.988
			c-0.007,0.552,0.436,1.005,0.988,1.012c0.236,0.003,0.472,0.009,0.707,0.016l0.241,0.012c0.021,0.001,0.043,0.002,0.064,0.002
			c0.523,0,0.963-0.407,0.997-0.937C37.865,33.169,37.447,32.693,36.895,32.658z"/>
	</g>
</g>
<g>
</g>
<g>
</g>
<g>
</g>
<g>
</g>
<g>
</g>
<g>
</g>
<g>
</g>
<g>
</g>
<g>
</g>
<g>
</g>
<g>
</g>
<g>
</g>
<g>
</g>
<g>
</g>
<g>
</g>
</svg>
